<?xml version="1.0" encoding="UTF-8"?>
<svg xmlns="http://www.w3.org/2000/svg" xmlns:xlink="http://www.w3.org/1999/xlink" contentScriptType="application/ecmascript" contentStyleType="text/css" height="648px" preserveAspectRatio="none" style="width:716px;height:648px;" version="1.1" viewBox="0 0 716 648" width="716px" zoomAndPan="magnify">
   <defs>
      <filter height="300%" id="f1ni50bsxhra15" width="300%" x="-1" y="-1">
         <feGaussianBlur result="blurOut" stdDeviation="2.0" />
         <feColorMatrix in="blurOut" result="blurOut2" type="matrix" values="0 0 0 0 0 0 0 0 0 0 0 0 0 0 0 0 0 0 .4 0" />
         <feOffset dx="4.0" dy="4.0" in="blurOut2" result="blurOut3" />
         <feBlend in="SourceGraphic" in2="blurOut3" mode="normal" />
      </filter>
      <style type="text/css">
        @import url('https://fonts.googleapis.com/css?family=Kalam');
        text {
          font-family: Kalam, cursive;
        }
      </style>
   </defs>
   <g>
      <path d="M51,41.7891 L51.8927,41.7891 L51.2447,51.846 L51.0504,61.9029 L50.2066,71.9598 L51.0471,82.0167 L50.8319,92.0737 L51.7914,102.1306 L51.9277,112.1875 L51.0809,122.2444 L51.2519,132.3013 L51.2231,142.3583 L50.1398,152.4152 L50.783,162.4721 L50.0196,172.529 L50.7023,182.5859 L51.8443,192.6429 L50.417,202.6998 L51.9348,212.7567 L50.3262,222.8136 L50.6627,232.8705 L50.6793,242.9275 L50.6854,252.9844 L51.1445,263.0413 L50.5474,273.0982 L51.8285,283.1551 L50.9613,293.2121 L51.0187,303.269 L50.1291,313.3259 L50.4333,323.3828 L51.3223,333.4397 L51.1529,343.4967 L51.4558,353.5536 L50.8915,363.6105 L50.511,373.6674 L51.8769,383.7243 L50.9171,393.7813 L51.7726,403.8382 L51.0304,413.8951 L50.0005,423.952 L51.873,434.0089 L51.1181,444.0658 L51.6234,454.1228 L51.9869,464.1797 L51.9171,474.2366 L50.106,484.2935 L50.7999,494.3504 L51.3064,504.4074 L50.8029,514.4643 L50.9456,524.5212 L50.7481,534.5781 L50.6371,544.635 L51.8532,554.692 L50.5131,564.7489 L50.8493,574.8058 L50.0674,584.8627 L50.1407,594.9196 L51,604.9766 " fill="none" style="stroke: #000000; stroke-width: 1.0; stroke-dasharray: 5.0,5.0;" />
      <path d="M292.5,41.7891 L291.5762,41.7891 L292.082,51.846 L292.6326,61.9029 L292.397,71.9598 L292.9721,82.0167 L292.3585,92.0737 L292.8865,102.1306 L292.9505,112.1875 L292.8177,122.2444 L292.2804,132.3013 L292.7555,142.3583 L293.0362,152.4152 L292.7237,162.4721 L292.9291,172.529 L291.671,182.5859 L291.5401,192.6429 L293.0699,202.6998 L293.1272,212.7567 L291.8946,222.8136 L292.658,232.8705 L292.6694,242.9275 L292.111,252.9844 L292.0745,263.0413 L293.0434,273.0982 L292.6093,283.1551 L292.7502,293.2121 L292.3676,303.269 L291.8093,313.3259 L291.7026,323.3828 L292.3282,333.4397 L292.9557,343.4967 L293.2229,353.5536 L293.3169,363.6105 L291.9681,373.6674 L291.9603,383.7243 L291.5931,393.7813 L292.8716,403.8382 L292.5429,413.8951 L293.1275,423.952 L293.2014,434.0089 L292.0001,444.0658 L292.3541,454.1228 L292.2042,464.1797 L293.1637,474.2366 L293.2721,484.2935 L291.991,494.3504 L291.6705,504.4074 L291.8349,514.4643 L292.4557,524.5212 L292.6034,534.5781 L292.4182,544.635 L291.7804,554.692 L291.5679,564.7489 L293.3266,574.8058 L292.0827,584.8627 L292.4379,594.9196 L292.5,604.9766 " fill="none" style="stroke: #000000; stroke-width: 1.0; stroke-dasharray: 5.0,5.0;" />
      <path d="M534.5,41.7891 L535.4235,41.7891 L533.7884,51.846 L535.036,61.9029 L535.3814,71.9598 L535.0387,82.0167 L534.5114,92.0737 L534.5413,102.1306 L534.571,112.1875 L535.0774,122.2444 L533.5907,132.3013 L535.2445,142.3583 L535.1383,152.4152 L533.5528,162.4721 L534.2838,172.529 L534.0474,182.5859 L535.1024,192.6429 L534.2041,202.6998 L535.0921,212.7567 L535.4541,222.8136 L534.9524,232.8705 L535.3637,242.9275 L533.5449,252.9844 L533.7292,263.0413 L534.2544,273.0982 L533.7174,283.1551 L535.2141,293.2121 L534.6273,303.269 L534.354,313.3259 L535.1282,323.3828 L534.4966,333.4397 L534.0755,343.4967 L533.8454,353.5536 L533.6552,363.6105 L535.3891,373.6674 L533.9863,383.7243 L534.7647,393.7813 L534.0455,403.8382 L534.8682,413.8951 L534.3745,423.952 L534.4386,434.0089 L534.3097,444.0658 L534.5505,454.1228 L534.1254,464.1797 L534.5851,474.2366 L533.5151,484.2935 L534.0669,494.3504 L534.1295,504.4074 L533.6079,514.4643 L533.6377,524.5212 L534.0282,534.5781 L534.0494,544.635 L534.0674,554.692 L535.2118,564.7489 L533.5885,574.8058 L533.7269,584.8627 L535.033,594.9196 L534.5,604.9766 " fill="none" style="stroke: #000000; stroke-width: 1.0; stroke-dasharray: 5.0,5.0;" />
      <polygon fill="#FFFFFF" filter="url(#f1ni50bsxhra15)" points="8,3,8,3.0751,18.25,3.7002,28.5,2.7478,38.75,2.9512,49,2.6078,59.25,2.2683,69.5,3.4712,79.75,2.35,90,3,89.7699,3,89.9056,9.7578,90.0594,16.5156,90.1771,23.2734,90.231,30.0313,90,36.7891,90,36.7893,79.75,37.06,69.5,37.5034,59.25,36.8058,49,36.6523,38.75,37.0628,28.5,37.3153,18.25,36.155,8,36.7891,7.8458,36.7891,8.1454,30.0313,8.0009,23.2734,8.1142,16.5156,8.2463,9.7578,8,3" style="stroke: #000000; stroke-width: 1.5;" />
      <text fill="#000000" font-family="sans-serif" font-size="17" lengthAdjust="spacingAndGlyphs" textLength="68" x="15" y="25.7798">TravisCI</text>
      <polygon fill="#FFFFFF" filter="url(#f1ni50bsxhra15)" points="8,603.9766,8,603.9366,18.25,603.7101,28.5,603.5945,38.75,604.0449,49,603.5866,59.25,603.8184,69.5,603.2516,79.75,604.3803,90,603.9766,90.1791,603.9766,90.2249,610.7344,90.1525,617.4922,89.9613,624.25,89.9523,631.0078,90,637.7656,90,638.2899,79.75,637.5671,69.5,637.3661,59.25,637.6412,49,637.1847,38.75,637.7614,28.5,637.9119,18.25,637.6161,8,637.7656,8.0022,637.7656,7.8527,631.0078,8.2431,624.25,7.7681,617.4922,7.764,610.7344,8,603.9766" style="stroke: #000000; stroke-width: 1.5;" />
      <text fill="#000000" font-family="sans-serif" font-size="17" lengthAdjust="spacingAndGlyphs" textLength="68" x="15" y="626.7563">TravisCI</text>
      <polygon fill="#FFFFFF" filter="url(#f1ni50bsxhra15)" points="264.5,3,264.5,3.0621,275.1,3.117,285.7,3.1859,296.3,3.5094,306.9,3.5792,317.5,3,317.4225,3,317.5287,9.7578,317.5626,16.5156,317.507,23.2734,317.699,30.0313,317.5,36.7891,317.5,36.061,306.9,37.2925,296.3,37.1725,285.7,37.2367,275.1,36.7853,264.5,36.7891,264.4446,36.7891,264.3646,30.0313,264.6509,23.2734,264.4604,16.5156,264.4978,9.7578,264.5,3" style="stroke: #000000; stroke-width: 1.5;" />
      <text fill="#000000" font-family="sans-serif" font-size="17" lengthAdjust="spacingAndGlyphs" textLength="39" x="271.5" y="25.7798">Alice</text>
      <polygon fill="#FFFFFF" filter="url(#f1ni50bsxhra15)" points="264.5,603.9766,264.5,603.7372,275.1,604.1101,285.7,604.1222,296.3,603.4516,306.9,604.0825,317.5,603.9766,317.7444,603.9766,317.3553,610.7344,317.5427,617.4922,317.7472,624.25,317.4862,631.0078,317.5,637.7656,317.5,638.0862,306.9,637.8403,296.3,638.4741,285.7,638.2683,275.1,637.0315,264.5,637.7656,264.5995,637.7656,264.2885,631.0078,264.4725,624.25,264.4087,617.4922,264.5849,610.7344,264.5,603.9766" style="stroke: #000000; stroke-width: 1.5;" />
      <text fill="#000000" font-family="sans-serif" font-size="17" lengthAdjust="spacingAndGlyphs" textLength="39" x="271.5" y="626.7563">Alice</text>
      <polygon fill="#FFFFFF" filter="url(#f1ni50bsxhra15)" points="497.5,3,497.5,3.75,507.6429,2.6424,517.7857,2.5692,527.9286,3.004,538.0714,2.9807,548.2143,3.7209,558.3571,3.1544,568.5,3,568.2726,3,568.3651,9.7578,568.3326,16.5156,568.5665,23.2734,568.6329,30.0313,568.5,36.7891,568.5,36.2266,558.3571,36.15,548.2143,37.5095,538.0714,36.1124,527.9286,36.6054,517.7857,36.1618,507.6429,36.7278,497.5,36.7891,497.5159,36.7891,497.5545,30.0313,497.314,23.2734,497.4765,16.5156,497.438,9.7578,497.5,3" style="stroke: #000000; stroke-width: 1.5;" />
      <text fill="#000000" font-family="sans-serif" font-size="17" lengthAdjust="spacingAndGlyphs" textLength="57" x="504.5" y="25.7798">Github</text>
      <polygon fill="#FFFFFF" filter="url(#f1ni50bsxhra15)" points="497.5,603.9766,497.5,603.7792,507.6429,603.9752,517.7857,603.7926,527.9286,604.0291,538.0714,603.7055,548.2143,603.951,558.3571,603.45,568.5,603.9766,568.304,603.9766,568.6558,610.7344,568.7432,617.4922,568.5046,624.25,568.6101,631.0078,568.5,637.7656,568.5,637.9076,558.3571,637.2075,548.2143,637.0351,538.0714,637.8978,527.9286,637.1106,517.7857,637.1071,507.6429,637.8416,497.5,637.7656,497.4841,637.7656,497.5771,631.0078,497.6938,624.25,497.4624,617.4922,497.2936,610.7344,497.5,603.9766" style="stroke: #000000; stroke-width: 1.5;" />
      <text fill="#000000" font-family="sans-serif" font-size="17" lengthAdjust="spacingAndGlyphs" textLength="57" x="504.5" y="626.7563">Github</text>
      <polygon fill="#000000" points="281,129.4531,281.0628,129.6102,282.9919,130.233,284.9529,130.9353,287.0716,132.0322,289.0131,132.6858,291,133.4531,290.931,133.2805,288.954,134.1382,287.0913,135.2815,284.9189,135.6504,282.947,136.5206,281,137.4531,280.8542,137.3073,281.7157,136.5688,282.553,135.8061,283.4972,135.1503,284.2367,134.2899,285,133.4531,285.1749,133.628,284.1731,132.6262,283.4932,131.9464,282.7313,131.1844,281.8168,130.2699,281,129.4531" style="stroke: #000000; stroke-width: 1.0;" />
      <path d="M51,133.4531 L51,132.5841 L60.8333,132.8218 L70.6667,133.0306 L80.5,133.4859 L90.3333,134.0629 L100.1667,134.2699 L110,133.462 L119.8333,133.3906 L129.6667,132.9609 L139.5,132.7817 L149.3333,133.954 L159.1667,133.1376 L169,133.5933 L178.8333,133.2347 L188.6667,132.8372 L198.5,133.6876 L208.3333,133.4627 L218.1667,132.8215 L228,134.4182 L237.8333,132.8551 L247.6667,133.2225 L257.5,133.3481 L267.3333,134.2459 L277.1667,133.7266 L287,133.4531 " fill="none" style="stroke: #000000; stroke-width: 1.0;" />
      <text fill="#000000" font-family="sans-serif" font-size="13" lengthAdjust="spacingAndGlyphs" textLength="71" x="58" y="67.856">Please visit</text>
      <text fill="#000000" font-family="sans-serif" font-size="13" lengthAdjust="spacingAndGlyphs" textLength="218" x="58" y="82.9888">github.com/login/oauth/authorize?</text>
      <text fill="#000000" font-family="sans-serif" font-size="13" lengthAdjust="spacingAndGlyphs" textLength="89" x="58" y="98.1216">scope=repo&amp;</text>
      <text fill="#000000" font-family="sans-serif" font-size="13" lengthAdjust="spacingAndGlyphs" textLength="164" x="58" y="113.2544">redirect_uri=travisci.org&amp;</text>
      <text fill="#000000" font-family="sans-serif" font-size="13" lengthAdjust="spacingAndGlyphs" textLength="119" x="58" y="128.3872">client_id=1234567</text>
      <path d="M298,146.4531 L298.2842,146.4531 L298.0921,154.4531 L298.2519,162.4531 L298.3574,170.4531 L297.3686,178.4531 L298,186.4531 L298,186.5611 L308.2857,187.2625 L318.5714,185.863 L328.8571,185.1779 L339.1429,185.3348 L349.4286,187.2574 L359.7143,185.7479 L370,185.9991 L380.2857,184.8 L390.5714,186.3588 L400.8571,186.2611 L411.1429,184.5415 L421.4286,185.0769 L431.7143,186.1071 L442,186.4531 L441.3939,186.4531 L442.1443,180.4531 L441.5159,174.4531 L442.6086,168.4531 L441.4298,162.4531 L442,156.4531 L441.7257,156.1789 L440.389,154.8421 L438.2348,152.6879 L436.1568,150.6099 L433.5889,148.0421 L432,146.4531 L432,148.2541 L421.6923,145.0857 L411.3846,146.0504 L401.0769,145.8219 L390.7692,146.8703 L380.4615,148.117 L370.1538,148.3685 L359.8462,146.928 L349.5385,144.8693 L339.2308,147.395 L328.9231,144.9891 L318.6154,148.2849 L308.3077,145.1678 L298,146.4531 " fill="#FFFFFF" filter="url(#f1ni50bsxhra15)" style="stroke: #000000; stroke-width: 1.0;" />
      <path d="M432,146.4531 L432.6244,146.4531 L431.8876,148.4531 L431.8387,150.4531 L432.3657,152.4531 L432.242,154.4531 L432,156.4531 L432,156.3625 L434,157.061 L436,156.0062 L438,157.0284 L440,156.7018 L442,156.4531 L442.3566,156.8097 L440.4226,154.8757 L438.0064,152.4596 L436.1617,150.6148 L433.9683,148.4215 L432,146.4531 " fill="#FFFFFF" style="stroke: #000000; stroke-width: 1.0;" />
      <text fill="#000000" font-family="sans-serif" font-size="13" lengthAdjust="spacingAndGlyphs" textLength="123" x="304" y="163.52">browser goes there</text>
      <text fill="#000000" font-family="sans-serif" font-size="13" lengthAdjust="spacingAndGlyphs" textLength="86" x="304" y="178.6528">automatically</text>
      <polygon fill="#000000" points="523,258.25,523.0846,258.4615,524.908,258.82,526.9448,259.712,528.9805,260.6013,531.0881,261.6703,533,262.25,533.0522,262.3806,530.9357,262.8894,528.9505,263.7262,526.9846,264.6114,524.9261,265.2652,523,266.25,523.0953,266.3453,523.9264,265.5764,524.6416,264.6916,525.4626,263.9126,526.2339,263.0839,527,262.25,526.9424,262.1924,526.1535,261.4035,525.486,260.736,524.6979,259.9479,523.8095,259.0595,523,258.25" style="stroke: #000000; stroke-width: 1.0;" />
      <path d="M293,262.25 L293,262.3245 L302.8333,263.047 L312.6667,261.2763 L322.5,262.9098 L332.3333,261.702 L342.1667,261.3657 L352,262.9867 L361.8333,262.0847 L371.6667,262.9605 L381.5,261.5237 L391.3333,261.9649 L401.1667,262.4727 L411,262.9517 L420.8333,262.0729 L430.6667,262.888 L440.5,261.5382 L450.3333,261.721 L460.1667,263.12 L470,261.2643 L479.8333,262.4773 L489.6667,262.048 L499.5,263.0863 L509.3333,261.459 L519.1667,262.5568 L529,262.25 " fill="none" style="stroke: #000000; stroke-width: 1.0;" />
      <text fill="#000000" font-family="sans-serif" font-size="13" lengthAdjust="spacingAndGlyphs" textLength="218" x="300" y="211.7856">github.com/login/oauth/authorize?</text>
      <text fill="#000000" font-family="sans-serif" font-size="13" lengthAdjust="spacingAndGlyphs" textLength="89" x="300" y="226.9185">scope=repo&amp;</text>
      <text fill="#000000" font-family="sans-serif" font-size="13" lengthAdjust="spacingAndGlyphs" textLength="164" x="300" y="242.0513">redirect_uri=travisci.org&amp;</text>
      <text fill="#000000" font-family="sans-serif" font-size="13" lengthAdjust="spacingAndGlyphs" textLength="119" x="300" y="257.1841">client_id=1234567</text>
      <path d="M540,275.25 L540.5514,275.25 L540.4006,284.4167 L541.8785,293.5833 L538.5011,302.75 L540.8459,311.9167 L541.4017,321.0833 L540,330.25 L540,329.8038 L550.25,328.3786 L560.5,330.9237 L570.75,330.4536 L581,329.8515 L591.25,331.5461 L601.5,330.411 L611.75,331.0791 L622,331.8948 L632.25,329.6352 L642.5,329.018 L652.75,329.19 L663,331.4261 L673.25,331.6318 L683.5,330.8602 L693.75,330.0641 L704,330.25 L704.0387,330.25 L702.8302,321.25 L704.5033,312.25 L704.0202,303.25 L705.8112,294.25 L704,285.25 L704.434,285.684 L702.0996,283.3496 L699.7086,280.9586 L698.2344,279.4844 L696.0166,277.2666 L694,275.25 L694,273.5776 L683.7333,273.6034 L673.4667,275.6024 L663.2,275.9917 L652.9333,276.1948 L642.6667,274.3452 L632.4,274.825 L622.1333,275.6049 L611.8667,274.3548 L601.6,275.4032 L591.3333,273.8921 L581.0667,276.8554 L570.8,275.8759 L560.5333,275.7691 L550.2667,274.0794 L540,275.25 " fill="#FFFFFF" filter="url(#f1ni50bsxhra15)" style="stroke: #000000; stroke-width: 1.0;" />
      <path d="M694,275.25 L694.1211,275.25 L694.4968,277.25 L694.4043,279.25 L693.7518,281.25 L693.7371,283.25 L694,285.25 L694,284.9838 L696,285.6484 L698,285.646 L700,284.6135 L702,285.4892 L704,285.25 L703.8115,285.0615 L701.5363,282.7863 L700.2399,281.4899 L697.8233,279.0733 L696.4248,277.6748 L694,275.25 " fill="#FFFFFF" style="stroke: #000000; stroke-width: 1.0;" />
      <text fill="#000000" font-family="sans-serif" font-size="13" lengthAdjust="spacingAndGlyphs" textLength="138" x="546" y="292.3169">Hmm, is "travisci.org"</text>
      <text fill="#000000" font-family="sans-serif" font-size="13" lengthAdjust="spacingAndGlyphs" textLength="143" x="546" y="307.4497">an allowed redirect_uri</text>
      <text fill="#000000" font-family="sans-serif" font-size="13" lengthAdjust="spacingAndGlyphs" textLength="122" x="546" y="322.5825">for client 1234567?</text>
      <polygon fill="#000000" points="304,371.9141,304.0924,372.145,302.0294,372.7876,300.0681,373.6844,297.9311,374.1419,295.9459,374.9787,294,375.9141,293.9771,375.8568,295.9673,376.6322,298.0731,377.6968,299.9103,378.0897,301.9381,378.9593,304,379.9141,303.8669,379.7809,303.3122,379.2262,302.4823,378.3964,301.7542,377.6683,300.7661,376.6802,300,375.9141,300.1188,376.0329,300.7383,375.0524,301.5482,374.2622,302.3708,373.4848,303.2797,372.7937,304,371.9141" style="stroke: #000000; stroke-width: 1.0;" />
      <path d="M298,375.9141 L298,376.1477 L307.8333,376.6446 L317.6667,376.3945 L327.5,375.7374 L337.3333,374.9602 L347.1667,376.3656 L357,376.4845 L366.8333,374.9285 L376.6667,375.1131 L386.5,376.8801 L396.3333,375.5619 L406.1667,375.3774 L416,375.2276 L425.8333,376.5696 L435.6667,375.5359 L445.5,376.4285 L455.3333,375.085 L465.1667,376.4037 L475,375.3189 L484.8333,376.8618 L494.6667,375.3705 L504.5,376.006 L514.3333,375.3464 L524.1667,376.3787 L534,375.9141 " fill="none" style="stroke: #000000; stroke-width: 1.0;" />
      <text fill="#000000" font-family="sans-serif" font-size="13" lengthAdjust="spacingAndGlyphs" textLength="136" x="310" y="355.7153">Do you trust Travis CI</text>
      <text fill="#000000" font-family="sans-serif" font-size="13" lengthAdjust="spacingAndGlyphs" textLength="107" x="310" y="370.8481">with repo scope?</text>
      <polygon fill="#000000" points="523,401.0469,523.0352,401.1348,525.0171,401.8896,527.0142,402.6824,529.0505,403.5731,531.0679,404.4165,533,405.0469,532.9694,404.9703,531.0426,405.9534,529.053,406.7795,526.9477,407.3162,525.0423,408.3527,523,409.0469,523.1041,409.1509,523.77,408.2169,524.5617,407.4086,525.2451,406.492,526.0767,405.7236,527,405.0469,527.141,405.1878,526.27,404.3168,525.3621,403.409,524.4338,402.4806,523.8434,401.8902,523,401.0469" style="stroke: #000000; stroke-width: 1.0;" />
      <path d="M293,405.0469 L293,405.5894 L302.8333,405.8843 L312.6667,404.6142 L322.5,404.9443 L332.3333,405.6364 L342.1667,404.9732 L352,404.4334 L361.8333,404.8464 L371.6667,404.373 L381.5,405.2497 L391.3333,404.3324 L401.1667,404.2412 L411,405.5397 L420.8333,405.9454 L430.6667,404.7721 L440.5,404.5335 L450.3333,404.1714 L460.1667,405.4605 L470,405.289 L479.8333,404.9219 L489.6667,405.3426 L499.5,405.4762 L509.3333,405.6093 L519.1667,405.4537 L529,405.0469 " fill="none" style="stroke: #000000; stroke-width: 1.0;" />
      <text fill="#000000" font-family="sans-serif" font-size="13" lengthAdjust="spacingAndGlyphs" textLength="27" x="300" y="399.981">Yes!</text>
      <polygon fill="#000000" points="304,445.3125,304.0484,445.4334,301.9153,445.9008,300.0034,446.921,297.9605,447.6139,295.9452,448.3754,294,449.3125,293.9986,449.309,295.9469,449.9797,298.0122,450.943,300.0195,451.7612,301.9649,452.4248,304,453.3125,303.8617,453.1742,303.1165,452.429,302.5083,451.8208,301.4312,450.7437,300.6957,450.0082,300,449.3125,300.0582,449.3707,300.7247,448.4372,301.5421,447.6546,302.2807,446.7932,303.0323,445.9448,304,445.3125" style="stroke: #000000; stroke-width: 1.0;" />
      <path d="M298,449.3125 L298,449.3621 L307.8333,450.0792 L317.6667,449.3723 L327.5,448.4949 L337.3333,448.5944 L347.1667,449.976 L357,448.4919 L366.8333,448.9564 L376.6667,449.105 L386.5,448.9995 L396.3333,450.0841 L406.1667,448.9196 L416,448.678 L425.8333,449.0353 L435.6667,449.5602 L445.5,449.7796 L455.3333,448.4878 L465.1667,448.9249 L475,449.5344 L484.8333,449.1255 L494.6667,449.053 L504.5,450.2496 L514.3333,448.7412 L524.1667,449.7957 L534,449.3125 " fill="none" style="stroke: #000000; stroke-width: 1.0;" />
      <text fill="#000000" font-family="sans-serif" font-size="13" lengthAdjust="spacingAndGlyphs" textLength="71" x="310" y="429.1138">Please visit</text>
      <text fill="#000000" font-family="sans-serif" font-size="13" lengthAdjust="spacingAndGlyphs" textLength="183" x="310" y="444.2466">travisci.org?token=123...abc</text>
      <path d="M298,462.3125 L298.4091,462.3125 L297.5626,470.3125 L298.6383,478.3125 L298.1439,486.3125 L297.7521,494.3125 L298,502.3125 L298,502.9767 L308.2857,500.4911 L318.5714,502.3632 L328.8571,500.5546 L339.1429,501.0828 L349.4286,501.742 L359.7143,502.7773 L370,501.9971 L380.2857,503.2572 L390.5714,501.692 L400.8571,502.4569 L411.1429,502.7729 L421.4286,502.8799 L431.7143,501.4316 L442,502.3125 L441.9848,502.3125 L441.5995,496.3125 L442.0535,490.3125 L441.8881,484.3125 L442.6663,478.3125 L442,472.3125 L442.2513,472.5638 L440.3544,470.6669 L437.731,468.0435 L435.7118,466.0243 L433.7241,464.0366 L432,462.3125 L432,461.4556 L421.6923,462.4532 L411.3846,462.4802 L401.0769,463.4104 L390.7692,460.7475 L380.4615,462.6482 L370.1538,463.9192 L359.8462,463.8044 L349.5385,464.1288 L339.2308,462.9411 L328.9231,463.3753 L318.6154,460.5761 L308.3077,462.2168 L298,462.3125 " fill="#FFFFFF" filter="url(#f1ni50bsxhra15)" style="stroke: #000000; stroke-width: 1.0;" />
      <path d="M432,462.3125 L431.7571,462.3125 L432.3377,464.3125 L431.5616,466.3125 L431.7757,468.3125 L432.1121,470.3125 L432,472.3125 L432,472.5149 L434,472.3981 L436,472.5956 L438,472.9676 L440,472.4983 L442,472.3125 L442.36,472.6725 L440.331,470.6435 L437.5452,467.8577 L436.2432,466.5557 L433.7631,464.0756 L432,462.3125 " fill="#FFFFFF" style="stroke: #000000; stroke-width: 1.0;" />
      <text fill="#000000" font-family="sans-serif" font-size="13" lengthAdjust="spacingAndGlyphs" textLength="123" x="304" y="479.3794">browser goes there</text>
      <text fill="#000000" font-family="sans-serif" font-size="13" lengthAdjust="spacingAndGlyphs" textLength="86" x="304" y="494.5122">automatically</text>
      <polygon fill="#000000" points="62,528.7109,62.0028,528.7178,59.9694,529.4343,57.9501,530.1862,56.0769,531.3031,54.0342,531.9965,52,532.7109,52.0303,532.7868,54.0632,533.669,56.0558,534.4505,57.9851,535.0736,60.0303,535.9866,62,536.7109,61.9252,536.6361,61.3501,536.061,60.3272,535.0382,59.5313,534.2422,58.7241,533.435,58,532.7109,58.1555,532.8665,58.8925,532.0035,59.6037,531.1146,60.5757,530.4866,61.0985,529.4095,62,528.7109" style="stroke: #000000; stroke-width: 1.0;" />
      <path d="M56,532.7109 L56,532.4849 L65.8333,532.7499 L75.6667,532.6793 L85.5,533.3313 L95.3333,531.8067 L105.1667,532.762 L115,533.4242 L124.8333,532.9551 L134.6667,533.6505 L144.5,532.5893 L154.3333,531.8016 L164.1667,532.7413 L174,533.3312 L183.8333,532.5232 L193.6667,532.4563 L203.5,533.5606 L213.3333,533.6308 L223.1667,533.211 L233,532.6544 L242.8333,533.039 L252.6667,533.2509 L262.5,532.563 L272.3333,532.8469 L282.1667,533.568 L292,532.7109 " fill="none" style="stroke: #000000; stroke-width: 1.0;" />
      <text fill="#000000" font-family="sans-serif" font-size="13" lengthAdjust="spacingAndGlyphs" textLength="183" x="68" y="527.645">travisci.org?token=123...abc</text>
      <path d="M56,545.7109 L56.061,545.7109 L56.4295,553.7109 L56.2617,561.7109 L56.0391,569.7109 L56.5122,577.7109 L56,585.7109 L56,587.0851 L66.1333,584.0134 L76.2667,584.816 L86.4,584.706 L96.5333,586.3272 L106.6667,586.1515 L116.8,584.4092 L126.9333,586.1003 L137.0667,584.6489 L147.2,585.0073 L157.3333,586.4171 L167.4667,585.2529 L177.6,583.8869 L187.7333,585.5909 L197.8667,586.3346 L208,585.7109 L207.8343,585.7109 L208.0583,579.7109 L207.4353,573.7109 L207.3879,567.7109 L207.8383,561.7109 L208,555.7109 L207.6763,555.3873 L206.3037,554.0147 L203.6734,551.3844 L201.8546,549.5656 L199.9029,547.6138 L198,545.7109 L198,545.0532 L187.8571,546.7538 L177.7143,544.1808 L167.5714,545.328 L157.4286,545.0279 L147.2857,546.2668 L137.1429,546.1607 L127,547.5797 L116.8571,545.2177 L106.7143,544.1238 L96.5714,544.9682 L86.4286,544.9435 L76.2857,546.259 L66.1429,545.4394 L56,545.7109 " fill="#FFFFFF" filter="url(#f1ni50bsxhra15)" style="stroke: #000000; stroke-width: 1.0;" />
      <path d="M198,545.7109 L198.1076,545.7109 L197.9163,547.7109 L197.8933,549.7109 L197.9429,551.7109 L198.0801,553.7109 L198,555.7109 L198,556.0591 L200,555.2674 L202,556.0522 L204,555.5183 L206,556.1813 L208,555.7109 L207.7202,555.4311 L206.3857,554.0966 L204.023,551.7339 L202.3362,550.0471 L199.9759,547.6868 L198,545.7109 " fill="#FFFFFF" style="stroke: #000000; stroke-width: 1.0;" />
      <text fill="#FF0000" font-family="sans-serif" font-size="13" lengthAdjust="spacingAndGlyphs" textLength="104" x="62" y="562.7778">&#x1f4a5;malware sniffs</text>
      <text fill="#FF0000" font-family="sans-serif" font-size="13" lengthAdjust="spacingAndGlyphs" textLength="131" x="62" y="577.9106">and steals the token</text>
      <!--
@startuml
skinparam backgroundColor White
skinparam handwritten true
skinparam NoteBackgroundColor White
skinparam NoteBorderColor Black
skinparam FontName "Gloria Hallelujah"
skinparam sequence {
ArrowColor Black
LifeLineBorderColor Black
ParticipantBorderColor Black
ParticipantBackgroundColor White
ParticipantFontSize 17
ParticipantFontColor Black
}

TravisCI->Alice: Please visit\ngithub.com/login/oauth/authorize?\nscope=repo&\nredirect_uri=travisci.org&\nclient_id=1234567
note right of Alice: browser goes there\nautomatically
Alice->Github:github.com/login/oauth/authorize?\nscope=repo&\nredirect_uri=travisci.org&\nclient_id=1234567
note right of Github: Hmm, is "travisci.org"\nan allowed redirect_uri\nfor client 1234567?
Github->Alice: Do you trust Travis CI\nwith repo scope?
Alice->Github: Yes!
Github->Alice: Please visit\ntravisci.org?token=123...abc
note right of Alice: browser goes there\nautomatically
Alice->TravisCI: travisci.org?token=123...abc
note right of TravisCI: <font color=red><U+1F4A5>malware sniffs</font>\n<font color=red>and steals the token</font>
@enduml

PlantUML version 1.2018.11beta1(Unknown compile time)
(GPL source distribution)
Java Runtime: Java(TM) SE Runtime Environment
JVM: Java HotSpot(TM) 64-Bit Server VM
Java Version: 1.7.0_25-b15
Operating System: Linux
Default Encoding: UTF-8
Language: en
Country: US
-->
   </g>
</svg>